<?xml version="1.0" encoding="UTF-8"?>
<svg id="_Слой_2" data-name="Слой 2" xmlns="http://www.w3.org/2000/svg" xmlns:xlink="http://www.w3.org/1999/xlink" viewBox="0 0 347.77 219.85">
  <defs>
    <style>
      .cls-1 {
        fill: #e1ad9d;
      }

      .cls-2 {
        fill: #fff;
      }

      .cls-3 {
        fill: #ebebff;
      }

      .cls-4 {
        fill: #eb8175;
      }

      .cls-5 {
        fill: #fafafa;
      }

      .cls-6 {
        fill: #2f4dab;
      }

      .cls-7 {
        stroke-width: 1.12px;
      }

      .cls-7, .cls-8, .cls-9, .cls-10, .cls-11, .cls-12, .cls-13, .cls-14, .cls-15, .cls-16 {
        fill: none;
      }

      .cls-7, .cls-8, .cls-9, .cls-16 {
        stroke-linecap: round;
        stroke-linejoin: round;
      }

      .cls-7, .cls-9 {
        stroke: #fff;
      }

      .cls-8 {
        stroke-width: 1.14px;
      }

      .cls-8, .cls-12 {
        stroke: #3d5ac4;
      }

      .cls-17 {
        clip-path: url(#clippath-2);
      }

      .cls-18 {
        fill: #4265d1;
      }

      .cls-9 {
        stroke-width: 1.13px;
      }

      .cls-10, .cls-11, .cls-12, .cls-13, .cls-14, .cls-15 {
        stroke-miterlimit: 10;
      }

      .cls-10, .cls-12, .cls-16 {
        stroke-width: 2.65px;
      }

      .cls-10, .cls-16 {
        stroke: #5571e9;
      }

      .cls-19 {
        fill: #091218;
      }

      .cls-20 {
        fill: #d6d7f4;
      }

      .cls-21 {
        fill: #1b2934;
      }

      .cls-22 {
        fill: #27429c;
      }

      .cls-23 {
        clip-path: url(#clippath-1);
      }

      .cls-24 {
        clip-path: url(#clippath-4);
      }

      .cls-11 {
        stroke-width: .28px;
      }

      .cls-11, .cls-15 {
        stroke: #f1ab00;
      }

      .cls-25 {
        opacity: .16;
      }

      .cls-25, .cls-26 {
        fill: #5571e9;
      }

      .cls-27 {
        fill: #e8c400;
      }

      .cls-28 {
        fill: #231c61;
      }

      .cls-29 {
        fill: #312c76;
      }

      .cls-30 {
        clip-path: url(#clippath);
      }

      .cls-13 {
        stroke-width: 1.11px;
      }

      .cls-13, .cls-14 {
        stroke: #231c61;
      }

      .cls-31 {
        clip-path: url(#clippath-3);
      }

      .cls-14 {
        stroke-width: 2.16px;
      }

      .cls-32 {
        fill: #14103d;
      }

      .cls-33 {
        fill: #c8c6f2;
      }

      .cls-34 {
        fill: #e16c5f;
      }

      .cls-15 {
        stroke-width: .28px;
      }

      .cls-35 {
        fill: #f5d100;
      }

      .cls-36 {
        fill: #334fbe;
      }

      .cls-37 {
        fill: #3d5ac4;
      }

      .cls-38 {
        fill: #d8d7fd;
      }

      .cls-39 {
        fill: #151247;
      }

      .cls-40 {
        fill: #373482;
      }
    </style>
    <clipPath id="clippath">
      <rect class="cls-35" x="92.72" y="146.38" width="163.89" height="18.09"/>
    </clipPath>
    <clipPath id="clippath-1">
      <path class="cls-4" d="m102.95,63.26c-1.26,2.7-.1,5.91,2.6,7.17,2.7,1.26,5.91.1,7.17-2.6,1.26-2.7.1-5.91-2.6-7.17-2.7-1.26-5.91-.1-7.17,2.6Z"/>
    </clipPath>
    <clipPath id="clippath-2">
      <path class="cls-4" d="m205.3,144.03c-1.91,2.33-1.57,5.77.76,7.68,2.33,1.91,5.77,1.57,7.68-.76,1.91-2.33,1.57-5.77-.76-7.68-2.33-1.91-5.77-1.57-7.68.76Z"/>
    </clipPath>
    <clipPath id="clippath-3">
      <path class="cls-35" d="m115.9,216.26l9.87-25.52c.47-1.22,2.19-1.22,2.66,0l9.87,25.52h-22.41Z"/>
    </clipPath>
    <clipPath id="clippath-4">
      <path class="cls-35" d="m259.26,216.34l9.87-25.52c.47-1.22,2.19-1.22,2.66,0l9.87,25.52h-22.41Z"/>
    </clipPath>
  </defs>
  <g id="_Слой_1-2" data-name="Слой 1">
    <g>
      <g>
        <path class="cls-3" d="m344.3,156.89c3.73-12.07,4.6-24.92,1.92-37.27-4.18-19.32-17.64-42.71-56.48-52.8C216.21,47.71,190.68-8.17,121.89,9.63c0,0-36.91,6.71-54.38,67.79-17.47,61.08-85.92,62.12-62.36,115.3,3.85,8.69,14.23,18.18,29.12,27.13l278.95-.94c19.28-23.18,25.28-43.23,31.08-62.03Z"/>
        <g>
          <path class="cls-20" d="m278.48,113.2h-10.47v-11.45c0-5.75-4-10.55-9.37-11.8v-14.21h-3.85v13.94c-6.18.56-11.02,5.74-11.02,12.07v11.79h-10.41v13.13h-.7v24.41l-18.92-.14v-29.17h-21.68v21.38h-15.21v20.77h-18.39v54.97h61.09s13.12,0,13.12,0h0s76.6,0,76.6,0v-69.32h-30.8l.03-36.37Z"/>
          <polygon class="cls-20" points="62.52 143.42 62.52 116.09 72.76 116.09 72.76 101.48 76.61 101.48 76.61 116.09 86.05 116.09 86.05 143.42 96.64 143.42 96.64 159.79 113.52 159.79 113.52 104.02 148.75 104.02 148.75 218.89 125.79 218.89 115.9 218.89 91.01 218.89 79.52 218.89 49.49 218.89 49.49 143.42 62.52 143.42"/>
        </g>
      </g>
      <g>
        <g>
          <g>
            <path class="cls-37" d="m255,218.61l-160.58.13c-6.08,0-11.02-4.92-11.02-11h0l182.61-.14h0c0,6.08-4.92,11.02-11,11.02Z"/>
            <path class="cls-26" d="m255,214.82l-160.58.13c-4.75,0-8.78-3-10.33-7.21h-.68c0,6.08,4.94,11.01,11.02,11l160.58-.13c6.08,0,11.01-4.94,11-11.02h-.68c-1.54,4.21-5.57,7.23-10.32,7.23Z"/>
            <path class="cls-22" d="m185.08,211.34l-20.75.02c-2.04,0-3.69-1.65-3.69-3.68h0l28.12-.02h0c0,2.04-1.65,3.69-3.68,3.69Z"/>
          </g>
          <g>
            <path class="cls-26" d="m256.61,207.6l-163.81.13-.08-98.88c0-5.67,4.59-10.27,10.26-10.28l143.27-.11c5.67,0,10.27,4.59,10.28,10.26l.08,98.87Z"/>
            <rect class="cls-29" x="101.29" y="107.06" width="146.75" height="92.06"/>
            <rect class="cls-39" x="101.32" y="190.32" width="146.75" height="8.8"/>
            <rect class="cls-39" x="101.25" y="107.06" width="146.75" height="4.37"/>
            <g>
              <polygon class="cls-25" points="150.19 107.08 101.29 156.06 101.32 199.18 101.43 199.18 193.42 107.05 150.19 107.08"/>
              <polygon class="cls-25" points="120.27 199.17 141.94 199.15 233.93 107.01 212.26 107.04 120.27 199.17"/>
              <polygon class="cls-25" points="230.81 199.08 248.06 181.8 248.03 149.12 196.26 199.1 230.81 199.08"/>
            </g>
          </g>
        </g>
        <g>
          <rect class="cls-35" x="92.72" y="146.38" width="163.89" height="18.09"/>
          <g class="cls-30">
            <polygon class="cls-2" points="113.17 170.82 99.06 170.82 111.2 143.05 125.3 143.05 113.17 170.82"/>
            <polygon class="cls-2" points="143.24 170.82 129.14 170.82 141.27 143.05 155.38 143.05 143.24 170.82"/>
            <polygon class="cls-2" points="173.31 170.82 159.21 170.82 171.35 143.05 185.45 143.05 173.31 170.82"/>
            <polygon class="cls-2" points="203.38 170.82 189.28 170.82 201.42 143.05 215.52 143.05 203.38 170.82"/>
            <polygon class="cls-2" points="233.45 170.82 219.35 170.82 231.49 143.05 245.59 143.05 233.45 170.82"/>
          </g>
        </g>
      </g>
      <g>
        <g>
          <g>
            <g>
              <g>
                <path class="cls-32" d="m79.56,115.14l-3.2.12-1.88-.59c-.86-.27-1.8.05-2.31.8l-.24.35,9.37,5.17,1.81-3.88-3.56-1.97Z"/>
                <path class="cls-32" d="m81.31,121.08l-9.44-5.21.33-.6c.07-.12.21-.16.33-.1l9.23,5.1-.45.81"/>
              </g>
              <polygon class="cls-4" points="83.12 117.12 85.59 112.83 83.12 108.41 79.56 115.14 83.12 117.12"/>
            </g>
            <path class="cls-32" d="m102.5,92.49s-13.35-3.83-14.63-.23c-1.29,3.6-9.07,19.55-9.07,19.55l5.81,3.03,8.72-15.14,11.73-1.02-2.55-6.19Z"/>
          </g>
          <g>
            <g>
              <g>
                <path class="cls-32" d="m91.65,120l-2.61,1.66-1.93.39c-.89.18-1.55.92-1.63,1.82l-.04.42,10.7-.02-.3-4.28h-4.19Z"/>
                <path class="cls-32" d="m96.19,124.35l-10.78.02v-.68c0-.13.11-.24.24-.24l10.54-.02v.93"/>
              </g>
              <polygon class="cls-4" points="95.85 120.01 96.19 112.83 91.93 112.35 91.65 120 95.85 120.01"/>
            </g>
            <path class="cls-28" d="m104.31,91.87l-12.58.57s-1.81.1-1.69,4.33c.12,4.24.11,21.28.11,21.28l6.04.21,1.16-17.85,12.59-.16c2.65-.03,5.12-1.55,6.17-3.99.4-.93.59-1.98.35-3.08l-12.15-1.32Z"/>
          </g>
        </g>
        <g>
          <g>
            <g>
              <path class="cls-1" d="m92.37,89.34c0,1.19-.81,1.37-2,1.38-1.19,0-2.32-.17-2.32-1.37,0-1.19.96-2.16,2.16-2.17,1.19,0,2.16.96,2.17,2.16Z"/>
              <path class="cls-1" d="m93.89,90.56h-2.5c-.65,0-1.19-.53-1.19-1.18h0c0-.65.53-1.19,1.18-1.19h2.5c.65,0,1.19.53,1.19,1.18h0c0,.65-.53,1.19-1.18,1.19Z"/>
            </g>
            <path class="cls-33" d="m93.79,90.81l-.83-4.09,10.27-1.12,2.05-12c.21-1.09,1.79-2.44,2.88-2.24l-.31-.09c1.09.21,2.09,1.47,1.89,2.56l-2,14.36c-.15.77-.73,1.39-1.5,1.58l-12.44,1.04Z"/>
          </g>
          <path class="cls-38" d="m114.31,71.63c.21.02.42.06.62.14l.1.04c1.76.69,2.96,2.58,3.04,4.35l-1.61,17.03c-10.64-.09-12.15-1.32-12.15-1.32l.85-17.42c.13-1.64.88-3.19,2.75-3.34h0l6.4.52Z"/>
          <g>
            <g>
              <path class="cls-4" d="m102.59,90.67c.08,1.19-.71,1.42-1.9,1.51-1.19.08-2.33-.02-2.41-1.21-.08-1.19.82-2.22,2.01-2.3,1.19-.08,2.22.82,2.3,2.01Z"/>
              <path class="cls-4" d="m104.18,91.79l-2.49.17c-.65.04-1.22-.45-1.27-1.1h0c-.04-.65.45-1.22,1.1-1.27l2.49-.17c.65-.04,1.22.45,1.26,1.1h0c.04.65-.45,1.22-1.1,1.27Z"/>
            </g>
            <path class="cls-38" d="m104.1,92.05l-1.1-4.02,11.19-1.8-.64-10.41c.13-1.1,1.34-2.34,2.44-2.21h0c1.1.13,2.19,1.33,2.05,2.43l.81,12.47c-.1.78-.64,1.44-1.39,1.67l-13.36,1.86Z"/>
          </g>
          <g>
            <path class="cls-19" d="m84.74,78.22l12.21,1.15c.4.04.72.35.77.75l1.28,11.01c.06.54-.39,1-.93.95l-12.42-1.17c-.41-.04-.73-.36-.77-.77l-1.08-10.99c-.05-.53.4-.98.93-.93Z"/>
            <path class="cls-21" d="m84.04,78.16l12.21,1.15c.4.04.72.35.77.75l1.28,11.01c.06.54-.39,1-.93.95l-12.42-1.17c-.41-.04-.73-.36-.77-.77l-1.08-10.99c-.05-.53.4-.98.93-.93Z"/>
            <path class="cls-19" d="m98.66,91.21l8.34.79c.25.02.44.25.42.5h0c-.02.25-.25.44-.5.42l-8.85-.8.59-.91Z"/>
            <path class="cls-2" d="m91.03,84.83c-.07.73-.72,1.27-1.46,1.21-.73-.07-1.27-.72-1.21-1.46.07-.73.72-1.27,1.46-1.21.73.07,1.27.72,1.21,1.46Z"/>
          </g>
          <polygon class="cls-33" points="113.17 78.22 113.44 86.04 103 88.03 112.2 85.15 113.17 78.22"/>
        </g>
        <g>
          <g>
            <path class="cls-4" d="m107.63,70.59l.7,1.87c.25.68.88,1.14,1.6,1.19h0c1.37.09,2.35-1.29,1.81-2.55l-1.22-2.88-2.88,2.36Z"/>
            <path class="cls-34" d="m108.25,72.26s3.44-.65,2.93-3.66c-.51-3.01-3.74-.66-3.74-.66l.32,3,.49,1.32Z"/>
            <g>
              <g>
                <path class="cls-4" d="m102.95,63.26c-1.26,2.7-.1,5.91,2.6,7.17,2.7,1.26,5.91.1,7.17-2.6,1.26-2.7.1-5.91-2.6-7.17-2.7-1.26-5.91-.1-7.17,2.6Z"/>
                <g class="cls-23">
                  <path class="cls-28" d="m109.83,66.61s-.85,4.32,2.33,4.42c3.18.09,1.45-8.11,1.45-8.11l-5.03-5.06-7.69,1.89.76,4.97s1.22.65,7.84-.44l.35,2.32Z"/>
                  <polygon class="cls-28" points="106.69 63.23 109.22 66.92 111.4 64.52 106.69 63.23"/>
                </g>
              </g>
              <path class="cls-4" d="m108.99,65.61c-.36.76-.03,1.67.74,2.03.76.36,1.67.03,2.03-.74.36-.76.03-1.67-.74-2.03-.76-.36-1.67-.03-2.03.74Z"/>
            </g>
          </g>
          <g>
            <path class="cls-35" d="m101.9,64.65s-1.17-4.25,1.59-6.88c2.27-2.17,5.99-2.03,8.01.38.95,1.13,1.71,2.84,1.78,5.4l-11.38,1.11Z"/>
            <path class="cls-15" d="m102.48,64.57l-.03-2.65c0-.67.52-1.23,1.19-1.26h0c.66-.03,1.24.46,1.3,1.12l.27,2.65"/>
            <line class="cls-7" x1="113.28" y1="63.54" x2="100.9" y2="64.73"/>
          </g>
        </g>
      </g>
      <g>
        <g>
          <g>
            <polygon class="cls-4" points="226 206.99 228.77 209.68 225.61 211.38 222.9 208.73 226 206.99"/>
            <path class="cls-32" d="m206.46,186.91l1.85,8.21c.37,1.64,1.09,3.22,2.11,4.67l12.21,10.97,4.83-3.93-10.42-11.04-3.82-14.56-6.76,5.68Z"/>
            <g>
              <path class="cls-32" d="m225.52,211.31l-1,3.19-1.14,1.59c-.53.73-.51,1.72.05,2.43l.26.33,7.79-7.26-3.11-2.91-2.84,2.63Z"/>
              <polyline class="cls-32" points="231.55 211.61 223.7 218.93 223.07 218.25 230.92 210.94 231.55 211.61"/>
            </g>
          </g>
          <g>
            <polygon class="cls-4" points="199.3 211.99 198.26 215.46 194.69 214.5 195.73 211.09 199.3 211.99"/>
            <path class="cls-28" d="m204.1,177.75l-10.01,33.85,6.32,1.58,5.64-16.97,6.92-11.1c.35-.5.7-1.01.99-1.55.55-1.02.8-2.12.79-3.23l-.02-2.2-10.62-.37Z"/>
            <g>
              <path class="cls-32" d="m194.89,214.17l-3.16,1.17-1.97.07c-.91.03-1.68.66-1.91,1.53l-.11.41,10.58,1.74.41-4.28-3.85-.64Z"/>
              <polyline class="cls-32" points="198.36 219.16 187.7 217.41 187.85 216.49 198.51 218.25 198.36 219.16"/>
            </g>
          </g>
        </g>
        <g>
          <g>
            <g>
              <polygon class="cls-36" points="190.12 143.37 186.07 149.69 188.01 151.08 192.2 144.4 190.12 143.37"/>
              <path class="cls-18" d="m184.86,132.91s1.87,7.83,11.35,10.91c.27.09.48.32.52.6.12.91.12,2.87-1.97,3.45-.2.05-.42.01-.59-.09-1.45-.91-8.58-5.07-15.5-3.87l6.2-10.99Z"/>
              <path class="cls-36" d="m184.86,132.91s-1.74,7.81-6.2,10.99c0,0,.63-6.85,6.2-10.99Z"/>
            </g>
            <g>
              <g>
                <path class="cls-4" d="m184.75,149.28c-.29,1.44.89,3.19,2.33,3.48,1.44.29,2.84-.63,3.13-2.07.29-1.44-.89-3.19-2.33-3.48-1.44-.29-2.84.63-3.13,2.07Z"/>
                <polyline class="cls-4" points="192.36 153.49 189.55 150.56 187.72 152.82 192.36 156.22"/>
              </g>
              <path class="cls-33" d="m191.91,150.78l-2.97,4.41,8.11,7.42c.49.14,1.01.19,1.52.15l10.71-1.39c1.69-.08,2.99-1.51,2.91-3.2h0c-.08-1.69.24-4.13-1.44-4.05l-12.44,2.56-6.4-5.9Z"/>
            </g>
          </g>
          <g>
            <path class="cls-38" d="m215.93,160.9c.29-2.34-.78-4.65-2.76-5.93-.89-.57-1.78-.96-2.41-.85-2.13.36-4.33,1.33-5.27,4.21-1.6,4.9-2.05,19.39-2.05,19.39l11.48.39,1.02-17.22Z"/>
            <polygon class="cls-33" points="211.69 161.27 215.14 173.95 215.84 163.19 211.69 161.27"/>
          </g>
          <g>
            <g>
              <path class="cls-4" d="m225.76,186.29c1.08-.99,1.16-3.1.18-4.18-.99-1.09-2.67-1.16-3.75-.18-1.09.99-1.16,3.1-.18,4.18.99,1.08,2.67,1.16,3.75.18Z"/>
              <polyline class="cls-4" points="220.55 177.26 222.64 182.42 225.45 181.68 223.71 176.2"/>
            </g>
            <path class="cls-38" d="m220.68,181.24l5.75-1.26-3.9-13.33c-.14-.49-.38-.96-.69-1.37l-7.16-8.91c-.97-1.39-2.6-1.14-3.98-.17h0c-1.39.97-1.72,2.87-.76,4.26l6.89,8.29,3.84,12.5Z"/>
          </g>
        </g>
        <g>
          <g>
            <path class="cls-4" d="m208.07,152.38l.22,2.01c.08.73.57,1.34,1.27,1.56h0c1.32.43,2.62-.68,2.41-2.05l-.48-3.13-3.41,1.6Z"/>
            <path class="cls-34" d="m208.26,154.17s3.54-.12,3.8-3.19c.25-3.07-3.51-1.24-3.51-1.24l-.44,3.02.15,1.41Z"/>
            <g>
              <g>
                <path class="cls-4" d="m205.3,144.03c-1.91,2.33-1.57,5.77.76,7.68,2.33,1.91,5.77,1.57,7.68-.76,1.91-2.33,1.57-5.77-.76-7.68-2.33-1.91-5.77-1.57-7.68.76Z"/>
                <g class="cls-17">
                  <path class="cls-28" d="m211.22,149.03s-1.91,4.03,1.18,4.91c3.09.88,3.44-7.59,3.44-7.59l-3.67-6.21-8.01-.06-.49,5.07s1.04.94,7.79,1.52l-.24,2.36Z"/>
                  <polygon class="cls-28" points="208.98 144.93 210.54 149.19 213.27 147.37 208.98 144.93"/>
                </g>
              </g>
              <path class="cls-4" d="m210.64,147.83c-.54.66-.44,1.63.22,2.17.66.54,1.63.44,2.17-.22.54-.66.44-1.63-.22-2.17-.66-.54-1.63-.44-2.17.22Z"/>
            </g>
          </g>
          <g>
            <path class="cls-35" d="m203.89,145.6s-.27-4.45,3.01-6.48c2.7-1.67,6.35-.76,7.85,2.05.7,1.32,1.1,3.16.64,5.71l-11.49-1.28Z"/>
            <path class="cls-11" d="m204.49,145.65l.52-2.63c.13-.67.77-1.11,1.44-1h0c.66.11,1.13.72,1.05,1.38l-.29,2.68"/>
            <line class="cls-9" x1="215.39" y1="146.87" x2="202.89" y2="145.47"/>
          </g>
        </g>
      </g>
      <g>
        <g>
          <line class="cls-12" x1="291.69" y1="179.23" x2="278.75" y2="191.98"/>
          <line class="cls-12" x1="291.69" y1="165.6" x2="278.75" y2="178.35"/>
          <line class="cls-12" x1="291.69" y1="151.97" x2="278.75" y2="164.73"/>
          <line class="cls-12" x1="291.69" y1="138.35" x2="278.75" y2="151.1"/>
          <line class="cls-12" x1="291.69" y1="124.72" x2="278.75" y2="137.47"/>
          <line class="cls-12" x1="291.69" y1="111.1" x2="278.75" y2="123.85"/>
          <line class="cls-12" x1="291.69" y1="97.47" x2="278.75" y2="110.22"/>
          <line class="cls-12" x1="291.69" y1="83.85" x2="278.75" y2="96.6"/>
          <line class="cls-12" x1="291.69" y1="70.22" x2="278.75" y2="82.97"/>
          <line class="cls-12" x1="291.69" y1="56.59" x2="278.75" y2="69.34"/>
          <line class="cls-12" x1="291.69" y1="42.97" x2="278.75" y2="55.72"/>
          <line class="cls-12" x1="278.75" y1="178.35" x2="291.69" y2="178.35"/>
          <line class="cls-12" x1="278.75" y1="164.73" x2="291.69" y2="164.73"/>
          <line class="cls-12" x1="278.75" y1="151.1" x2="291.69" y2="151.1"/>
          <line class="cls-12" x1="278.75" y1="137.47" x2="291.69" y2="137.47"/>
          <line class="cls-12" x1="278.75" y1="123.85" x2="291.69" y2="123.85"/>
          <line class="cls-12" x1="278.75" y1="110.22" x2="291.69" y2="110.22"/>
          <line class="cls-12" x1="278.75" y1="96.6" x2="291.69" y2="96.6"/>
          <line class="cls-12" x1="278.75" y1="82.97" x2="291.69" y2="82.97"/>
          <line class="cls-12" x1="278.75" y1="69.34" x2="291.69" y2="69.34"/>
          <line class="cls-12" x1="278.75" y1="55.72" x2="291.69" y2="55.72"/>
          <line class="cls-10" x1="278.75" y1="195.67" x2="278.75" y2="45.15"/>
          <line class="cls-10" x1="291.69" y1="195.67" x2="291.69" y2="45.15"/>
          <rect class="cls-28" x="272.08" y="191.98" width="25.76" height="26.76"/>
        </g>
        <g>
          <g>
            <path class="cls-37" d="m278.26,19.66h13.46c2.37,0,4.3,1.93,4.3,4.3v16.89c0,2.37-1.93,4.3-4.3,4.3h-13.46c-2.37,0-4.3-1.93-4.3-4.3v-16.89c0-2.37,1.93-4.3,4.3-4.3Z"/>
            <path class="cls-6" d="m275.97,25.8h8.67c1.8,0,3.26,1.46,3.26,3.26v5.41c0,1.8-1.46,3.26-3.26,3.26h-8.67v-11.92h0Z"/>
          </g>
          <g>
            <g>
              <line class="cls-14" x1="193.42" y1="46.54" x2="203.76" y2="76.59"/>
              <line class="cls-14" x1="186.22" y1="42.97" x2="166.04" y2="70.22"/>
              <g>
                <rect class="cls-35" x="159.61" y="60.55" width="48" height="48" rx="6.84" ry="6.84" transform="translate(227.98 281.76) rotate(-127.41)"/>
                <rect class="cls-13" x="163.97" y="64.91" width="39.27" height="39.27" rx="5.59" ry="5.59" transform="translate(227.98 281.76) rotate(-127.41)"/>
                <path class="cls-28" d="m185.38,94.72c-.54,4.05-6.68,3.23-6.14-.82.54-4.08,6.69-3.26,6.14.82Zm2.64-22.61l-2.41,17.01-5.17-.69c.76-5.72,1.4-11.29,2.17-17.05l5.41.72Z"/>
              </g>
            </g>
            <g>
              <g>
                <circle class="cls-28" cx="190.47" cy="40.42" r="8.65"/>
                <path class="cls-40" d="m196.58,40.42c0,3.38-2.74,6.12-6.12,6.12s-6.12-2.74-6.12-6.12,2.74-6.12,6.12-6.12,6.12,2.74,6.12,6.12Z"/>
              </g>
              <g>
                <line class="cls-12" x1="224.39" y1="1.32" x2="224.39" y2="19.66"/>
                <line class="cls-12" x1="207.94" y1="1.32" x2="207.94" y2="19.66"/>
                <line class="cls-12" x1="240.77" y1="1.32" x2="240.77" y2="19.66"/>
                <line class="cls-12" x1="258.98" y1="1.32" x2="258.98" y2="19.66"/>
                <line class="cls-12" x1="275.97" y1="1.32" x2="275.97" y2="19.66"/>
                <line class="cls-12" x1="293.58" y1="1.32" x2="293.58" y2="19.66"/>
                <line class="cls-12" x1="310.88" y1="1.32" x2="310.88" y2="19.66"/>
                <line class="cls-12" x1="207.09" y1="19.66" x2="224.39" y2="1.32"/>
                <line class="cls-12" x1="224.39" y1="19.66" x2="241.68" y2="1.32"/>
                <line class="cls-12" x1="241.68" y1="19.66" x2="258.98" y2="1.32"/>
                <line class="cls-12" x1="258.98" y1="19.66" x2="276.28" y2="1.32"/>
                <line class="cls-12" x1="276.28" y1="19.66" x2="293.58" y2="1.32"/>
                <line class="cls-12" x1="293.58" y1="19.66" x2="310.88" y2="1.32"/>
                <polygon class="cls-16" points="190.47 19.66 331.5 19.66 312.51 1.32 205.06 1.32 190.47 19.66"/>
                <line class="cls-16" x1="190.47" y1="19.66" x2="190.47" y2="40.42"/>
              </g>
            </g>
          </g>
        </g>
      </g>
      <g>
        <g>
          <g>
            <path class="cls-35" d="m115.9,216.26l9.87-25.52c.47-1.22,2.19-1.22,2.66,0l9.87,25.52h-22.41Z"/>
            <g class="cls-31">
              <rect class="cls-5" x="118.19" y="196.23" width="17.53" height="5.42"/>
              <rect class="cls-5" x="117.23" y="206.47" width="19.83" height="5.42"/>
            </g>
          </g>
          <rect class="cls-27" x="114.1" y="216.26" width="26.13" height="2.15"/>
        </g>
        <g>
          <g>
            <path class="cls-35" d="m259.26,216.34l9.87-25.52c.47-1.22,2.19-1.22,2.66,0l9.87,25.52h-22.41Z"/>
            <g class="cls-24">
              <rect class="cls-5" x="261.55" y="196.31" width="17.53" height="5.42"/>
              <rect class="cls-5" x="260.59" y="206.55" width="19.83" height="5.42"/>
            </g>
          </g>
          <rect class="cls-27" x="257.45" y="216.34" width="26.13" height="2.15"/>
        </g>
      </g>
      <g>
        <g>
          <circle class="cls-26" cx="62.28" cy="173.61" r="20.5" transform="translate(-118.62 209.64) rotate(-81.53)"/>
          <g>
            <line class="cls-8" x1="62.28" y1="166.31" x2="62.28" y2="218.41"/>
            <line class="cls-8" x1="54.31" y1="167.37" x2="62.28" y2="176.31"/>
            <path class="cls-8" d="m69.35,175.82c-.57.57-7.07,7.34-7.07,7.34"/>
          </g>
        </g>
        <line class="cls-8" x1=".57" y1="218.91" x2="344.47" y2="218.91"/>
      </g>
    </g>
  </g>
</svg>